<?xml version="1.0" encoding="utf-8"?>
<!-- Generator: Adobe Illustrator 25.0.0, SVG Export Plug-In . SVG Version: 6.00 Build 0)  -->
<svg version="1.1" id="katman_1" xmlns="http://www.w3.org/2000/svg" xmlns:xlink="http://www.w3.org/1999/xlink" x="0px" y="0px"
	 viewBox="0 0 3058.9 1867.9" style="enable-background:new 0 0 3058.9 1867.9;" xml:space="preserve">
<path d="M866.9,1192.4H728.3l-42.4-102.3h-231l-38.6,102.3H280l208.2-516.5h149.2L866.9,1192.4z M564.7,799.3L489,1000h159
	L564.7,799.3z M1370.3,675.9h112.1v516.5h-128.8V869.8l-139.3,162h-19.7l-139.3-162v322.6H926.5V675.9h112.1l165.8,191.6
	L1370.3,675.9z M1808.6,675.9c188.6,0,285.5,117.4,285.5,259c0,148.4-93.9,257.5-299.9,257.5h-213.6V675.9H1808.6z M1709.4,1097.7
	h84c129.5,0,168.1-87.9,168.1-163.6c0-88.6-47.7-163.6-169.6-163.6h-82.5L1709.4,1097.7L1709.4,1097.7z M2350.2,798.3L2187.9,636
	h591v591l-162.3-162.4V798.3H2350.2z M2350,830.9L2182.9,998v234h233.9l167.1-167.1H2350V830.9z"/>
</svg>
